<svg width="24" height="24" viewBox="0 0 24 24" fill="none" xmlns="http://www.w3.org/2000/svg">
<path fill-rule="evenodd" clip-rule="evenodd" d="M23.3158 12.2679C23.3158 11.432 23.2407 10.6283 23.1014 9.8568H11.9998V14.4164H18.3436C18.0703 15.8899 17.2398 17.1383 15.9914 17.9741V20.9317H19.8009C22.0298 18.8796 23.3158 15.8577 23.3158 12.2679Z" fill="#4285F4"/>
<path fill-rule="evenodd" clip-rule="evenodd" d="M11.9998 23.7873C15.1824 23.7873 17.8507 22.7318 19.801 20.9315L15.9915 17.9739C14.936 18.6812 13.5858 19.0991 11.9998 19.0991C8.9297 19.0991 6.33109 17.0256 5.40416 14.2394H1.46606V17.2935C3.40564 21.1458 7.39196 23.7873 11.9998 23.7873Z" fill="#34A853"/>
<path fill-rule="evenodd" clip-rule="evenodd" d="M5.40426 14.2397C5.16851 13.5324 5.03456 12.777 5.03456 12C5.03456 11.2231 5.16851 10.4677 5.40426 9.76042V6.70639H1.46616C0.667828 8.2977 0.212402 10.098 0.212402 12C0.212402 13.9021 0.667828 15.7024 1.46616 17.2937L5.40426 14.2397Z" fill="#FBBC05"/>
<path fill-rule="evenodd" clip-rule="evenodd" d="M11.9998 4.9007C13.7304 4.9007 15.2842 5.49544 16.5058 6.66347L19.8867 3.2826C17.8453 1.38053 15.1771 0.212494 11.9998 0.212494C7.39196 0.212494 3.40564 2.85397 1.46606 6.70633L5.40416 9.76037C6.33109 6.97423 8.9297 4.9007 11.9998 4.9007Z" fill="#EA4335"/>
</svg>
