<svg width="29" height="24" viewBox="0 0 29 24" fill="none" xmlns="http://www.w3.org/2000/svg">
<path d="M9.1208 23.7875C20.0637 23.7875 26.0479 14.7184 26.0479 6.85404C26.0479 6.59649 26.0427 6.34011 26.0311 6.08479C27.1955 5.24194 28.2004 4.19835 28.9987 3.00295C27.9327 3.47704 26.7856 3.79613 25.5822 3.94C26.8105 3.20322 27.7535 2.03761 28.1984 0.648219C27.0305 1.34126 25.7529 1.82982 24.4206 2.09284C23.335 0.936011 21.7894 0.212494 20.078 0.212494C16.7926 0.212494 14.1284 2.87777 14.1284 6.16312C14.1284 6.6302 14.1806 7.08437 14.2827 7.52015C9.33817 7.27126 4.95369 4.90303 2.01937 1.30201C1.49087 2.21026 1.21289 3.2425 1.21381 4.29333C1.21381 6.35814 2.26408 8.1809 3.86128 9.24732C2.91651 9.21845 1.99249 8.96317 1.16689 8.50294C1.16601 8.52793 1.16601 8.55227 1.16601 8.57897C1.16601 11.4612 3.21668 13.8677 5.93889 14.413C5.42762 14.5522 4.90005 14.6227 4.37015 14.6224C3.98747 14.6224 3.61451 14.5847 3.25204 14.5151C4.00945 16.8798 6.2057 18.6006 8.80961 18.6487C6.77338 20.2452 4.20836 21.1962 1.42056 21.1962C0.946321 21.1966 0.472468 21.1691 0.00146484 21.1137C2.63444 22.802 5.76084 23.7871 9.1211 23.7871" fill="#1D9BF0"/>
</svg>
